<?xml version="1.0" standalone="no"?>
<!DOCTYPE svg PUBLIC "-//W3C//DTD SVG 20010904//EN"
 "http://www.w3.org/TR/2001/REC-SVG-20010904/DTD/svg10.dtd">
<svg version="1.0" xmlns="http://www.w3.org/2000/svg"
 width="625.000000pt" height="625.000000pt" viewBox="0 0 625.000000 625.000000"
 preserveAspectRatio="xMidYMid meet">

<g transform="translate(0.000000,625.000000) scale(0.100000,-0.100000)"
fill="#000000" stroke="none">
<path d="M5830 6000 c0 -7 -938 -10 -2795 -10 l-2795 0 0 -2850 0 -2850 2860
0 2860 0 0 2850 0 2850 -50 0 c-27 0 -50 5 -50 10 0 6 -7 10 -15 10 -8 0 -15
-4 -15 -10z m-406 -536 c8 -21 8 -1448 0 -1469 -5 -12 -14 -1 -36 41 -33 64
-127 207 -140 212 -4 2 -8 9 -8 16 0 7 -13 27 -30 44 -16 18 -30 36 -30 41 0
5 -43 54 -95 108 -53 54 -99 101 -103 106 -34 35 -107 97 -115 97 -5 0 -22 14
-37 30 -15 17 -33 30 -39 30 -7 0 -23 11 -37 25 -14 14 -30 22 -36 19 -7 -4
-8 -2 -4 4 4 7 1 12 -8 12 -9 0 -16 4 -16 9 0 5 -13 14 -30 21 -16 7 -30 16
-30 21 0 5 -9 9 -20 9 -11 0 -20 5 -20 10 0 6 -7 10 -15 10 -8 0 -15 5 -15 10
0 6 -9 10 -20 10 -11 0 -20 5 -20 10 0 6 -9 10 -20 10 -11 0 -20 5 -20 10 0 6
-9 10 -20 10 -11 0 -20 5 -20 10 0 6 -6 10 -13 10 -7 0 -32 9 -55 20 -22 11
-48 20 -56 20 -8 0 -17 4 -21 9 -3 5 -30 13 -60 16 -30 4 -55 11 -55 16 0 5
-13 9 -30 9 -16 0 -30 5 -30 10 0 6 -25 10 -55 10 -30 0 -55 5 -55 10 0 6 -22
10 -50 10 -27 0 -50 5 -50 10 0 6 -39 10 -97 10 -67 0 -93 3 -83 10 10 6 -450
10 -1307 10 l-1323 0 0 -2144 c0 -1815 -2 -2145 -14 -2155 -9 -8 -60 -11 -157
-9 l-144 3 -3 2338 -2 2337 2319 0 c2105 0 2319 -1 2325 -16z m-3484 -2774 l0
-1890 -155 0 -155 0 0 168 c-1 92 -1 930 0 1862 0 932 0 1707 0 1723 l0 27
155 0 155 0 0 -1890z m1795 1879 c133 -14 170 -21 180 -30 5 -5 24 -9 42 -9
18 0 33 -4 33 -10 0 -5 13 -10 29 -10 17 0 33 -4 36 -10 3 -5 17 -10 31 -10
13 0 24 -4 24 -10 0 -5 7 -10 15 -10 8 0 30 -9 50 -20 20 -11 42 -20 50 -20 8
0 15 -4 15 -10 0 -5 9 -10 20 -10 11 0 20 -4 20 -9 0 -5 8 -11 18 -14 21 -7
71 -37 90 -54 7 -7 17 -13 22 -13 5 0 15 -6 22 -13 7 -7 29 -23 48 -37 43 -29
290 -274 290 -287 0 -6 12 -23 28 -39 15 -16 33 -42 41 -57 8 -15 18 -27 23
-27 4 0 8 -9 8 -20 0 -11 3 -20 8 -20 4 0 13 -13 20 -28 6 -16 21 -38 32 -50
11 -12 20 -33 20 -47 0 -14 5 -25 10 -25 6 0 10 -9 10 -20 0 -11 4 -20 9 -20
6 0 13 -20 17 -45 3 -25 10 -48 15 -51 5 -3 9 -16 9 -29 0 -13 5 -27 10 -30 6
-3 10 -21 10 -40 0 -19 4 -36 9 -39 5 -3 12 -25 15 -48 4 -24 11 -74 17 -113
21 -131 11 -502 -13 -541 -4 -5 -8 -31 -9 -57 -2 -26 -6 -47 -11 -47 -4 0 -8
-11 -8 -25 0 -14 -4 -33 -10 -43 -13 -23 -40 -109 -40 -127 0 -8 -4 -15 -10
-15 -5 0 -10 -13 -10 -30 0 -16 -4 -30 -10 -30 -5 0 -10 -9 -10 -20 0 -11 -4
-20 -10 -20 -5 0 -10 -9 -10 -20 0 -11 -4 -20 -10 -20 -5 0 -10 -8 -10 -18 0
-10 -9 -24 -20 -32 -11 -8 -20 -22 -20 -32 0 -10 -4 -18 -10 -18 -5 0 -10 -8
-10 -17 0 -10 -14 -29 -30 -42 -17 -13 -30 -27 -30 -32 0 -5 -13 -23 -30 -41
-16 -17 -30 -35 -30 -39 0 -8 -69 -83 -210 -228 -36 -37 -78 -71 -93 -75 -15
-3 -27 -11 -27 -16 0 -6 -6 -10 -12 -10 -7 0 -26 -11 -42 -25 -16 -13 -37 -27
-47 -30 -11 -4 -19 -11 -19 -16 0 -5 -9 -9 -20 -9 -11 0 -20 -4 -20 -8 0 -5
-16 -14 -35 -22 -19 -8 -35 -17 -35 -22 0 -4 -9 -8 -20 -8 -11 0 -20 -4 -20
-10 0 -5 -9 -10 -20 -10 -11 0 -20 -4 -20 -10 0 -5 -12 -10 -26 -10 -14 0 -23
-4 -20 -8 2 -4 -7 -9 -22 -10 -15 -1 -28 -7 -30 -12 -2 -6 -17 -10 -33 -10
-16 0 -29 -4 -29 -10 0 -5 -16 -10 -36 -10 -21 0 -33 -4 -29 -10 4 -6 3 -10
-2 -9 -29 5 -83 -3 -78 -11 4 -6 -15 -10 -49 -10 -31 0 -56 -4 -56 -10 0 -6
-43 -10 -110 -10 -67 0 -110 -4 -110 -10 0 -7 -166 -10 -479 -10 -380 0 -481
3 -489 13 -10 12 -14 881 -12 2760 l0 487 588 -1 c323 0 623 -5 667 -10z
m1695 -3122 c0 -331 -3 -612 -6 -624 l-6 -23 -961 0 c-528 0 -958 2 -955 5 3
3 56 10 119 15 203 17 386 52 506 96 37 14 91 33 118 42 110 36 409 202 509
283 6 5 38 30 71 56 33 26 85 73 115 104 95 99 205 220 215 238 6 10 23 34 38
52 42 51 139 204 182 291 22 42 43 74 47 72 5 -3 8 -276 8 -607z"/>
</g>
</svg>
